<svg xmlns="http://www.w3.org/2000/svg" xmlns:xlink="http://www.w3.org/1999/xlink" viewBox="0 0 24 30" version="1.1" x="0px" y="0px"><title>design_006-pentagon-polygon-shape-figure</title><desc>Created with Sketch.</desc><g stroke="none" stroke-width="1" fill="none" fill-rule="evenodd"><g transform="translate(-284.000000, -44.000000)" fill="#000000"><path d="M296.354844,45.425774 L306.66093,52.913583 C306.835193,53.040193 306.923641,53.305395 306.855939,53.513761 L302.919365,65.629291 C302.852802,65.83415 302.627912,66.000221 302.408823,66.000221 L289.669801,66.000221 C289.454399,66.000221 289.226961,65.837657 289.159259,65.629291 L285.222685,53.513761 C285.156122,53.308902 285.240448,53.04236 285.417695,52.913583 L295.72378,45.425774 C295.898043,45.299164 296.177598,45.296997 296.354844,45.425774 L296.354844,45.425774 Z M295.999997,46.400002 L305.795879,53.517127 L302.054185,65.032877 L289.945809,65.032877 L286.204115,53.517127 L295.999997,46.400002 L295.999997,46.400002 Z"/></g></g><text x="0" y="39" fill="#000000" font-size="5px" font-weight="bold" font-family="'Helvetica Neue', Helvetica, Arial-Unicode, Arial, Sans-serif">Created by Pham Thi Dieu Linh</text><text x="0" y="44" fill="#000000" font-size="5px" font-weight="bold" font-family="'Helvetica Neue', Helvetica, Arial-Unicode, Arial, Sans-serif">from the Noun Project</text></svg>